<?xml version="1.0" encoding="utf-8"?>
<!-- Generator: Adobe Illustrator 18.0.0, SVG Export Plug-In . SVG Version: 6.00 Build 0)  -->
<!DOCTYPE svg PUBLIC "-//W3C//DTD SVG 1.1//EN" "http://www.w3.org/Graphics/SVG/1.1/DTD/svg11.dtd">
<svg version="1.1" id="Слой_2" xmlns="http://www.w3.org/2000/svg" xmlns:xlink="http://www.w3.org/1999/xlink" x="0px" y="0px"
	 viewBox="0 311 1590 606" enable-background="new 0 311 1590 606" xml:space="preserve">
<path fill="#000000"    d="M16.6,607c0.4-1.6,2-4,3.8-4c3.4,0,1.7,3.4,4.1,4.8
	c3.4,2,12.7-1.1,16.3-2c12.7-3.2,11.7-8.9,12.7-20.9c10.7,2.3,2.9-12.5,4.9-16.4c0.7-1.3,4.9-3.3,6.4-4.2c2.4-1.7,5-4,7-6.1
	c3.8,1.9,7.3-7.4,10.7-9.1c2.7-1.3,5.4-0.9,7.9-2.7c1.3-0.9,1.6-3.2,2.9-4c1.6-0.9,2.9-0.4,4.5-1.2c6.4-2.8,9.7-4.8,17.4-4.8
	c5.6,0,15.8,2,20.1-1.7c2.9,5,15.8,3.6,18.7,0.8c2.4-2.3,2.6-5.8,5.6-8c2.9-2.1,6-1.5,9-2.9s4.9-4.6,7.8-6.4
	c4.1-2.4,6.2-0.4,9.5-1.1c4.5-0.9,11.3-11.8,12.9-16.3c1.9,0.1,9-0.3,10.5-1.1c3.6-1.9,3.3-4.8,7.4-6.1c3.3-0.9,5.4,0.3,8.6-1.1
	c4.5-1.9,3.6-4.8,9.1-3.8c2.8,0.4,6.8,4.1,9.5,3.2c2.3-0.7,4.9-6.8,6.5-8.7c0.7-0.9,2.5-2.1,2.9-3.2c0.8-2.1-0.1-2.9,0.1-4.5
	c0.7-4,0.3-6.5,4.8-8c1.3-4.1-2.9-6.5-1.7-10.5c1.2-4,6.1-5.2,9.4-3.6c2.3,1.1,4,6.4,6,6.6c6.1,0.9,4.2-5.6,4.9-8.7
	c1.9-9.1,10.7-10.1,17.6-13.2c6.1-2.9,8.7-11.3,14.3-2.1c4,6.6-2.3,12.6,7.8,14.4c5.7,1.1,12.5-2,17.1-6c5-4.4,7-10.9,11.8-15.2
	c4.1-3.7,9.9-7.8,14.7-10.3c3.3-1.9,5.4-2,9.4-2.1c5.6-0.3,6-1.5,10.7-3.6c3.6-1.7,6.9-1.6,10.3,0c5.2,2.4,2.8,3.7,5.3,8.2
	c7,1.6,17.1-5.8,20.1-11.4c4-7.2,7-13.5,12.6-19.3c6.1-6.5,7.3-12.5,15.5-17.2c3.4-2,6.8-5.6,10.7-6.1c3-0.4,10.7,1.5,13.6,2.5
	c-1.9-5-1.7-11.1-3.8-15.9c7.3,1.1,8.6-10.9,7.4-16.4c-0.7-3.2-4-6-2.6-9.9c1.3-3.8,6.4-3.2,4.9-8.7h8.7c0,0,183.8,5.8,206,6.8
	c22.3,0.9,259.3,4.4,309.7,3.4c50.4-0.9,506-2.6,506-2.6v4.1c0.7-0.1,1.2-0.1,1.7,0.1c1.7,4.1,2.7,9.8-1.7,11.5
	c-3.7,1.3-8.5-1.9-9.8-4.8c-1.1-2.4,1.7-3.2-0.1-5.8c-1.3-1.7-5.3-3.2-7.6-2c-4.1,2.1-2.7,6.6-9.5,6c-1.3,5.6,7,5.2,9.5,7.6
	c3.6,3.3,2.5,10.2,9.5,9.9c-2.8,4.5,0.4,7.4,4.8,10.3c2.5-3,0.8-7.3-0.7-10.3c9.3-2.3,4.4,12.6,4.8,17.2c0.7,7.4,4.1,12.9,8.5,18.7
	c4,5.2,7.6,11.9,9.7,18.2c1.3,3.8-0.3,6,0.1,9.7c0.4,4.1,4,6.9,2.8,11.5c-5.7-1.2-9.3-5.2-11.7-10.3c-2.3-5-2.1-10.7-4.9-15.5
	c-2.4-4-6.1-6.8-8.2-10.9c-2.1-4-2.3-11.7-7.8-12.5c-0.8,3.6,3.4,6.5,4.9,9.5c1.5,3,1.7,5.2,1.7,8.7c-0.1,3-1.7,5-0.3,8
	c1.2,2.5,4.6,3.2,6,5.4c-3.8,0.8-11-2.9-14.4-4.6c-5.7-2.9-5.3-6.5-8.9-11.4c-2.4-3.3-3.7-1.7-6.6-3c-2.7-1.3-3.4-2.5-5.6-4.8
	c-4.9-5.3-8.5-3.2-15.6-1.7c4,4,16.7,4.6,12.6,13.1c5,2,9.7,4.9,10.3,10.9c1.2,10.9-6.1,3.7-11.3,3c-0.9,4.9,4.4,6.8-2.1,6.9
	c-1.1,0-3.2-2-4.8-2.3c-1.6-0.1-4.9,1.5-5.8,1.1c-5.2-1.9-6.9-11.7-13.4-13.5c-1.7,9.1,15.9,11,13.2,22c-3.7-1.9-7.7-1.6-11.5-2.8
	c-3.7-1.2-4.8-3.3-8-5.6c-5.8-4.1-15.2-8.5-22-11.8c0,9.8,17.6,13.6,21.1,22c-6.1,0.7-15.2-2.9-20.1-0.8c0.9,1.1,1.9,3,3.4,4
	c-3.4,1.1-5.4,4.5-8.2,7c-4,3.6-5.2,2.5-9.9,3.6c-8.3,1.9-10.9,2.1-14.6-6.5c-4.2-0.8-6.8,3.3-11.3,0.7c-4.8-2.9-2.1-6.6-4.2-10.2
	c-1.9-3.2-5.6-3.4-6.6-7.9c-0.8-3.7-0.9-9.9-0.9-13.6c0-9.5,9.3-12.2,4.9-21.3c-2.6-5.4-7.8-14.8-15.1-13.5
	c4.1,1.5,7.6,11.4,9.5,15.5c2,3.8,3.6,5.6,1.5,9.5c-1.9,3.3-4.1,2.9-4.6,8c-0.4,4,0.7,7.2,0.9,10.6c0.3,3.7-1.2,8.9,0.1,12.3
	c1.1,2.8,6.5,5,6.6,7.9c0.1,1.7-3.2,2.9-3,4.9c0.1,2.9,2.1,2.3,3.7,4.1c3.7,4.1,4.1,2.5,1.9,7.3c-1.3,2.9-5.2,5.2-4.6,8.9
	c0.9,5.6,2.7,2.5,6.8,2c4.1-0.7,8.5,0,12.6-0.7c6.9-1.1,16.2-2,22.5-4.9c6.8-3,9.5-7.2,16.3-1.5c3,2.7,0.5,3.4,5.7,4.1
	c1.3,0.1,3.4-0.8,4.1-0.8c0.9,0.1,4.1,2,4.6,1.9c2.8-0.8,4.6-3.4,6.6-5.2c2.5-2.1,4.9-4,7.9-5.3c6.5-3,13.6-3.7,20.3-2.3
	c4.4,0.9,16.6,5.2,16.3,10.5c-4.4,1.2-6.4-2.3-10.5,1.3c1.2,0.8,1.3,2,3.7,2c-2,1.2-5.2,0.1-7.6,1.7c4.5,7.4,11-2.5,14.2,1.1
	c5.3,6-5.3,8.7-6.6,13.4c-2.8-0.7-3.8-3-5.4-5.4c-1.2,6.4,4.8,7.2,6.9,11c1.9,3.3,0.9,10.7,0.5,14.7c-3.2,0-6.2-0.7-8.3-2.6
	c0,7.4,6.8,3,9.4,6.6c1.3,1.7-0.8,13.6-0.9,16.4c-3,0.9-6-0.8-8.5-2.4c4.2,7.4,13.6,12.7,18.3,3.4c3.7-7.4,4.8-14.6,2.9-22.3
	c-1.7-6.6-3.4-17.1,0-23.3c6.1-10.7,12.1-4.1,17.2,1.9c-1.1-3.4-4.8-6.9-3.4-11.4c4.2-2.3,7.2,0.1,11.1,0.7c-8.6-6.2-5-13,5.2-10.5
	c5.6,1.3,10.1,7.6,11.4,12.9c1.9,7.8-0.4,14.6,2.9,22c3,7.2,2.8,16.2,2,24.1c-2.4-0.3-5.3-1.3-7.4-2.6c-0.7,5.2,2.9,8.6,3.4,13.5
	c0.5,5-4.2,8.1-7.6,11.7c-11.3,12.3-9.9-8.2-18.2-6.6c-1.5,2.8-0.8,5.4-1.2,8.5c-0.4,4.2-0.7,3.8-2.9,6.8c-3,4.1-6.5,7.8-11.4,6
	c-2.8,5,0.4,10.6-3.3,15.1c-4.2,5-9.4,4.4-8.6,12.7c-3.8,1.9-5.2-0.5-8.3,2.1c-3.3,2.6-2,7.3-5,9.4c-1.7,1.2-8.2,1.9-10.5,2.4
	c-3.7,0.8-8,1.3-11.9-0.3c-3.2-1.3-4.5-5.4-6.9-6.6c-4.1-2-7.6,0.7-11.1-2.1c-2.3-1.7-3.6-7-7-7.6c-5-0.7-4.9,4.1-4.1,7.4
	c-6,0.1-0.5-12.1-7.7-10.3c-2.5,0.7-3.6,7.3-6,8.5c-2.4,1.2-5.6,0-7.4-1.1c-6.2-3.6-2.4-9.5-5.8-13.2c-2-2.1-6-0.9-6.9-3.8
	c-0.9-3.2,2.1-4.5,4.8-4.1c-0.4-2.8-3.3-3.3-2.7-6.5c3.2-0.3,7.3-0.7,10.5-0.1c3.7,0.5,6.9,3.3,10.7,0.9c6.2-3.8,4.1-13.6-2.8-15.4
	c0.1,2.4,0.9,4,0.7,6.5c-1.5,0.1-4.2-0.4-5.7,0.1c-1.5,0.7-2.8,2.1-4.1,2.7c-3.6,1.3-6.4,1.5-10.5,0.5c-1.9-0.4-2.9-2-4.9-2.3
	c-1.1-0.1-2.7,2.3-3.8,2.1c-2.9-0.5-5.3-5.2-7.4-1.2c2.1,0.4,4.4,1.1,6.4,2.4c-3.3,3.7-10.1,2.3-14.2,0.8c-2.7,10.1,15,3.7,17.2,4.6
	c3.4,1.5,2.1,4.9,2.9,7.8c0.8,3,2.4,5.6,3.7,8.5c-2,1.3-2.3,3.7-2,6c-3.4,0.9-7.2-0.8-10.3-2c0.3-1.2-0.5-3.3-0.4-4.5
	c-2.8,0.3-4,3.3-6.5,4.6c-0.8-7.3-11-3.7-15.6-6.5c-1.6-0.9-4-2.5-4.6-4.4c-1.1-3,2.6-6.8,1.9-8.5c-2.1-4.5-3.8-0.5-4.9,0.9
	c-2.7,3.4,0.1,4.1-4.8,5.8c-5.6,1.9-10.2,2.4-12.7-3.7c-1.5-0.4-3.2,0.1-4.6-0.3c-1.1-0.3-1.9,1.3-2.9,1.2c-1.2-0.3-0.8-1.9-1.6-2.1
	c-2.4-0.8-5.6-2.5-7.8-4c-3.3-2.3-10.9-10.6-15.4-9.3c1.2,1.6,19.6,17.2,8.7,16.3c5.7,0,8.3-0.1,12.6,3.6c4.6,4.2,2.3,6.5,2.7,12.6
	c0.1-13.5,7.4-7.8,16.4-5.6c3.2,0.8,10.1,0.8,10.9,4.6c1.2,5.2-6.2,1.7-8.6,5.8c6.1,1.7,15.9-8.2,19.2,2.9c2.3-0.9,5-1.3,7.4-0.7
	c-0.4,4.4-6,1.3-8.2,4.5c3.6-1.3,7.9-2.3,12.1-1.7c-0.5,1.1-0.3,2.4-1.5,3.6c4.5-0.5,5.7-2.4,10.6-0.1c2.9,1.3,9.1,6.4,2.8,8.2
	c0.1,1.3-0.7,3.3-0.4,4.6c-1.6-2.1,4.6-4,5.2-7.6c3.8-1.1,6.8,1.6,10.3,1.6c0.1-0.5,0.3-1.1,0.4-1.6c4.9,3,8.1-1.2,8.7,6
	c0,0.5-2,1.3-2,1.9c0,1.1,1.6,2.5,1.5,2.9c-0.3,2.7,2.3,5.7-3.4,4.8c0.3,1.1-0.1,2.3,0.4,3.6c-4.9,1.3-8.5-2.7-13.1-3.6
	c0.4,3.4,12.7,5.3,11.3,9.3c-1.7,4.9-12.9-1.1-14.4-3.3c1.1,6.4-6.8,2.5-10.3,6.2c-0.3-0.5-0.8-1.1-1.3-1.5c-0.5,6-4.2,6.4-9.4,6.6
	c-0.5,2.1-1.6,3.7-3,4.5c4.9,0.8,9-1.3,13.2-2c0.5-0.1,0.9-1.5,1.5-1.5c1.9-0.1,2.1,1.3,3.7,1.6c2.3,0.3,4.1,0.8,6.5,0.9
	c2,0.1,3.6-1.7,5.8,0.1c-0.4-0.3,2.8,7.6,2.9,6.9c-0.8,4.9-8.7,2.7-13.2,3c-0.7,3.4,2.8,4.5,4.6,6.5c-3.8,1.1-8.1,2.1-11.8,3
	c-4.2,1.2-6.5,5.7-11.3,5c-0.1,0.5-0.3,1.1-0.3,1.6c-2.7,0.3-7.7,3.7-7.8,6.9c-0.9-0.8-2.7-0.9-3.4-1.7c0,0.8-0.4,1.9-0.4,2.7
	c-9.3,0.7-18.8-5.7-24.9-12.2c2.1,0,3.4-1.1,4.9-2.1c-2.9-2.9-6.6-2.6-10.9-2.9c-5.4-0.4-4.9,1.2-8.5-3.8c-3.6-5.2-8-14.6-14.7-16.3
	c2.4,4.5,6.2,8,8.9,12.5c2.1,3.4,8.2,8.3,9.3,11.9c1.3,4.2-1.6,6.1,3.3,10.2c3.4,2.9,7.2,3.8,8.6,8.7c3.3-0.5,7,0.8,5.4,4.9
	c-0.7-0.9-0.5-1.1-0.7-2.6c3-0.8,9.9,0.1,6.5,4.4c1.1-4.8,7.8-2.6,10.5-0.4c3.2,2.7,2.6,9,7.9,7.6c2.8-0.8,18.8-19.2,19.2-7
	c-4.5-0.3-4.5-5.3-6.5-8.3c2-0.1,4.8,0.3,6.6-0.4c3-1.1,2.9-3.8,6.8-3.7c5.4,0.1,5,4.6,7.6,7.7c0.1-3.4-2.5-5.8-1.6-9.4
	c4.8-0.1,11.9-3.3,15.4,1.5c-2.5-2.8,1.9-14.2,2.9-17.9c5.8-1.3,7.9,7.3,7.6,11.5c-0.3,4-6.9,11-2.7,13.4c2.5-0.7,4.2-2.8,4.8-5.4
	c2.9-0.5,4.6,1.9,5.7,4.2c3.7-5.7,5.6-4,10.7,0c-0.3-5.8-0.5-11.3,3-16c8.9,4.5,4.5,17.1,6.5,24c-4.6-0.3-11.9,4.4-14.2-0.7
	c2,3.3,7,5.8,6.5,10.3c-3.3,1.5-8.9,2.4-12.3,2c-0.1-2.1-0.9-3.2-1.9-4.6c0.4,5.7-1.7,11.5-5.3,16.2c-2.9,3.7-8.3,6.6-9.5,11.8
	c-1.9-1.1-3.8-3-3.7-5.4c-1.2,6.4-2.3,15.5-11.4,11.1c-6.1-2.9-1.1-2.7-2.4-5.8c-1.1-2.7-3.3-5.2-6.4-6.5c0.4,6.6-4.6,11.4-5.2,18.2
	c-3.2,0.8-9-3.3-8.3-6.5c6.2,0.7,7.3-3.8,2.9-7.2c-2.9-2.3-8-1.9-11.7-1.6c-1.5,5.3,7.6,4.1,5.6,10.3c-4,0.9-4.9-2.4-8.9-1.1
	c-1.1,0.4-1.7,2.7-2.9,2.9c-2.8,0.7-1.3,0-3.8-0.5c-4.4-0.8-5-1.9-9.5-1.2c-3.4,0.5-7.2,1.5-10.6,2.7s-6.4,3.2-9.7,4.1
	c-4.8,1.3-6.5,0.5-10.5,4c-3.2,2.9-3,4.1-7.3,5.4c-3.3,1.1-6.1,2.1-9.1,3.4c-6.9,2.7-12.6,7.7-18.7,10.3c-6.6,2.9-12.1,5.8-18.2,9.9
	c-11.3,7.6-22.5,14.6-33.9,22.3c-10.9,7.3-22.8,12.5-32.3,21.7c-9.7,9.4-16.2,20.8-23.2,31.9c-7.6,11.9-13.5,23.3-17.2,37
	c-1.5,5.6-8.1,37.8-15.4,35.6c-1.5-5.7,2.7-7,5.4-10.7c2.4-3,3.4-6.8,4.2-10.5c1.7-7.8,0.7-14.7,3.7-22.3c2.8-7.2,2.3-14.8,0.3-22.3
	c-1.2-4.5-3.2-17.1-6.8-19.2c-3.3,5.2-0.4,18.7,0.8,24.1c1.5,6.6,3.7,15.9,1.7,23.1c-1.5,5-3.6,15.1-6.8,19.3
	c-1.7,2.4-4.4,3-6.2,5.2c-1.7,1.9-3.6,7.6-6,8.3c-2.4,0.8-6.9-3.2-9-4.5c-3.8-2.4-4.2-3.2-9.4-3.2c-7.4,0-15-1.3-22.3-2
	c-15.1-1.3-28.1,1.7-40.5,7.8c-0.7,0.4-2.5,0.5-2.9,0.7c0.5,0.3,1.2,0.4,1.9,0.3l-5.8,0.9L834.1,701.8H633.9v-29L610.7,637
	l-21.3,10.6c0,0-2-9.7,0-10.6c2-0.9,2-0.9,2-0.9l-2.8-8.9l-221.7-11.4c0,0-8.7,3.8-11.7,3.8s-5.8-3.8-5.8-3.8l-7.7,5.8
	c0,0-4.9-2.9-7.7-2c-2.9,0.9-32.9,13.5-32.9,13.5l-7.7,3.8l-6.8,4.9c0,0-5.8,6.8-6.8,3.8c-0.9-2.9,0-7.7,0-7.7l-59.2,20.3L4,661.2
	L9.8,608L16.6,607z"/>
<path fill="#000000"    d="M1334.4,726.9c4.5-2.6,11.4-0.1,16.4-0.9
	c6-0.9,10.2-2.5,16.4-0.9c10.6,2.7,19.9,3.4,27.2,12.5c3.2-1.2,2.9-4.1,4.6-6.8c2-2.9,5-4.9,7.3-7.4c4.4-4.9,6.1-11.4,10.2-16.7
	c7.4-9.8,18.3-18.2,27.6-24.9c4.9-3.6,8-8.9,12.6-12.6c4.2-3.4,8.3-7.2,12.6-10.9c5.4-4.8,10.5-10.2,16-14.8
	c4.2-3.6,10.1-5.7,10.1-12.2c8.6,0.7,14.2-2.9,22.3-6.6c2.7-1.2,5.6-3.6,8.2-4.4c4-1.2,6.2,1.2,9.7,1.1c5.6-0.4,11.9-7.6,16.4-10.7
	c2.7-1.9,4-3.3,6.4-5.3c4.5-4,4.4-3,9.4-3.2c4.6-0.1,4.8,0.9,7.4-4.1c1.6-2.9,3-7,3.2-10.5c0.1-4.8-0.9-5,1.7-9.9
	c2-3.7,2.9-6,3.2-10.3c0.9-14.4,2.5-33-1.7-45.7c-1.5-4.5-2.8-7.4-3.2-12.3c-0.4-5.2,0.8-8.9-2.1-13.2c-2.4-3.7-6-5.4-7.8-9.7
	c-1.5-3.4-2-7.2-3.6-10.9c-1.6-3.6-2.5-7-3.8-10.6c-1.2-3.3-0.4-2.9-2.9-4.9c-2-1.6-4,0.4-6.1-2.6c-2-3-1.1-9-2.9-12.9
	c-1.6-3.2-4.2-10.2-7.3-11.5c-1.1,2-2.8,3-4.9,2.6c-2.5-3.7,0.3-9.7-0.1-14.3c-0.4-5.3-1.3-10.2-2-15.5c-0.8-6.5-4.8-21.5-10.9-24.9
	c-2.4-1.3-3.8,0.7-5.7-2.1c-1.1-1.6,0.3-6.9,0.3-8.7c0-4.8-0.3-9-2-13.8c-3-8.9-4.4-18.8-6.9-27.7c1.1-0.5,3.4-0.9,4.5-1.1
	c0.8,8,4,13.2,5.2,20.9c1.1,6.6,3.2,13.9,4.6,20.5c1.5,6.9,4.9,12.6,6.8,19.5c1.6,5.8,4.8,12.5,7,18.2
	c10.1,25.2,22.3,49.7,35.4,73.7c6.4,11.8,12.6,25.4,13.8,38.7c1.5,15.9-0.5,30.5-2.9,45.4c-1.2,7-0.1,15.4-1.9,22.4
	c-0.8,3.2-2.4,6.4-2.9,9.5c-0.8,4.2-0.3,8.7-2.7,12.6c-4.5,7.4-11.8,1.1-17.9,3.6c-6.4,2.7-11.1,6.9-18.2,8
	c-7.4,1.2-13,4.9-20.3,6.8c-6.5,1.6-12.3,6.8-18.2,9.9c-6.5,3.4-10.6,8.1-16.7,12.2c-6.6,4.4-11.5,6.1-17.2,12.1
	c-10.2,10.9-21.7,21.3-32.5,30.5c-9.7,8.2-17,19.9-24.6,29.5c-4.1,5-9,8.3-11.7,14.3c-1.9,4.1-4.2,14.7-10.7,14.3
	c-2-3.4,0.3-5.8-0.9-8.9c-0.9-2.4-3.3-4.8-5.3-6.4c-5-4.1-11.1-5.2-17.2-6.8c-6.8-1.7-14.2-1.3-21.3-0.1c-6.5,1.1-13.2,0.1-18.4,3.8
	L1334.4,726.9z"/>
</svg>
